<svg width="36" height="36" viewBox="0 0 36 36" fill="none" xmlns="http://www.w3.org/2000/svg">
<g filter="url(#filter0_d_167_186)">
<path d="M6 16C6 9.37258 11.3726 4 18 4C24.6274 4 30 9.37258 30 16C30 22.6274 24.6274 28 18 28C11.3726 28 6 22.6274 6 16Z" fill="#005FF9"/>
<path fill-rule="evenodd" clip-rule="evenodd" d="M11 15.9801C11 12.1313 14.1401 9 17.9999 9C21.8597 9 24.9998 12.1313 24.9998 15.9801C24.9998 16.5254 24.9543 16.9668 24.8524 17.4098L24.8509 17.4172C24.8506 17.4185 24.8 17.6227 24.7721 17.7119C24.5991 18.2636 24.2859 18.7231 23.8662 19.0408C23.4593 19.3488 22.9547 19.5186 22.4455 19.5186C22.3826 19.5186 22.3193 19.516 22.2572 19.511C21.5341 19.4531 20.8983 19.0737 20.5084 18.4686C19.8379 19.141 18.9482 19.5109 17.9999 19.5109C16.0476 19.5109 14.4592 17.927 14.4592 15.9801C14.4592 14.0333 16.0476 12.4495 17.9999 12.4495C19.9522 12.4495 21.5406 14.0333 21.5406 15.9801V17.1183C21.5435 17.7824 21.9904 18.0538 22.3722 18.0846C22.7521 18.1138 23.2576 17.8932 23.4337 17.173C23.5206 16.7781 23.5647 16.3766 23.5647 15.9801C23.5647 12.9204 21.0683 10.4311 17.9999 10.4311C14.9315 10.4311 12.4351 12.9204 12.4351 15.9801C12.4351 19.0399 14.9315 21.5293 17.9999 21.5293C19.068 21.5293 20.1068 21.2251 21.004 20.6495L21.02 20.6392L21.963 21.7325L21.9428 21.7463C20.7774 22.5405 19.414 22.9604 17.9999 22.9604C14.1401 22.9604 11 19.829 11 15.9801ZM17.9999 18.0798C19.1609 18.0798 20.1055 17.1379 20.1055 15.9801C20.1055 14.8224 19.1609 13.8806 17.9999 13.8806C16.8389 13.8806 15.8944 14.8224 15.8944 15.9801C15.8944 17.1379 16.8389 18.0798 17.9999 18.0798Z" fill="#FF9E00"/>
</g>
<defs>
<filter id="filter0_d_167_186" x="0" y="0" width="36" height="36" filterUnits="userSpaceOnUse" color-interpolation-filters="sRGB">
<feFlood flood-opacity="0" result="BackgroundImageFix"/>
<feColorMatrix in="SourceAlpha" type="matrix" values="0 0 0 0 0 0 0 0 0 0 0 0 0 0 0 0 0 0 127 0" result="hardAlpha"/>
<feOffset dy="2"/>
<feGaussianBlur stdDeviation="3"/>
<feComposite in2="hardAlpha" operator="out"/>
<feColorMatrix type="matrix" values="0 0 0 0 0.05 0 0 0 0 0.05 0 0 0 0 0.05 0 0 0 0.2 0"/>
<feBlend mode="normal" in2="BackgroundImageFix" result="effect1_dropShadow_167_186"/>
<feBlend mode="normal" in="SourceGraphic" in2="effect1_dropShadow_167_186" result="shape"/>
</filter>
</defs>
</svg>
