<svg width="34" height="36" viewBox="0 0 34 36" fill="none" xmlns="http://www.w3.org/2000/svg">
<g filter="url(#filter0_d_167_185)">
<path d="M22.1767 12.6635C23.7201 13.7706 25.6107 14.4221 27.6528 14.4221V10.4786C27.2663 10.4787 26.8808 10.4383 26.5027 10.3579V13.4619C24.4609 13.4619 22.5705 12.8105 21.0267 11.7034V19.7509C21.0267 23.7766 17.7748 27.0399 13.7636 27.0399C12.2669 27.0399 10.8758 26.5858 9.72021 25.807C11.0391 27.1604 12.8785 28 14.9133 28C18.9248 28 22.1769 24.7367 22.1769 20.7108V12.6635H22.1767ZM23.5954 8.68499C22.8066 7.82023 22.2888 6.70267 22.1767 5.46717V4.95996H21.0869C21.3612 6.53028 22.2969 7.87187 23.5954 8.68499ZM12.2573 22.7178C11.8166 22.1379 11.5785 21.4286 11.5796 20.6992C11.5796 18.858 13.067 17.3651 14.902 17.3651C15.244 17.365 15.584 17.4176 15.9099 17.5214V13.4898C15.529 13.4374 15.1446 13.4151 14.7603 13.4233V16.5613C14.4342 16.4575 14.0941 16.4048 13.752 16.4051C11.917 16.4051 10.4296 17.8979 10.4296 19.7393C10.4296 21.0414 11.1731 22.1687 12.2573 22.7178Z" fill="#FF004F"/>
<path d="M21.0265 11.7033C22.5702 12.8104 24.4607 13.4618 26.5025 13.4618V10.3578C25.3628 10.1141 24.3538 9.5164 23.5951 8.68499C22.2966 7.87179 21.361 6.5302 21.0867 4.95996H18.2241V20.7106C18.2176 22.5468 16.7327 24.0336 14.9016 24.0336C13.8226 24.0336 12.8639 23.5174 12.2568 22.7178C11.1727 22.1687 10.4292 21.0413 10.4292 19.7394C10.4292 17.8981 11.9166 16.4052 13.7516 16.4052C14.1032 16.4052 14.4421 16.4602 14.76 16.5614V13.4234C10.8192 13.5051 7.6499 16.7365 7.6499 20.7107C7.6499 22.6946 8.43913 24.4931 9.72006 25.8071C10.8756 26.5858 12.2667 27.04 13.7634 27.04C17.7747 27.04 21.0265 23.7765 21.0265 19.7509V11.7033H21.0265Z" fill="black"/>
<path d="M26.5025 10.3578V9.51848C25.4748 9.52005 24.4672 9.23119 23.5952 8.68493C24.3671 9.53306 25.3835 10.1179 26.5025 10.3578ZM21.0867 4.95998C21.0605 4.80991 21.0404 4.65885 21.0265 4.50721V4H17.074V19.7508C17.0677 21.5868 15.5829 23.0736 13.7516 23.0736C13.214 23.0736 12.7064 22.9455 12.2568 22.7179C12.864 23.5174 13.8226 24.0336 14.9016 24.0336C16.7326 24.0336 18.2177 22.5469 18.2241 20.7107V4.95998H21.0867ZM14.7601 13.4234V12.5299C14.4299 12.4846 14.0969 12.4619 13.7635 12.462C9.75192 12.4619 6.5 15.7254 6.5 19.7508C6.5 22.2745 7.77806 24.4987 9.72017 25.807C8.43924 24.493 7.65001 22.6944 7.65001 20.7106C7.65001 16.7365 10.8192 13.5051 14.7601 13.4234Z" fill="#00F2EA"/>
</g>
<defs>
<filter id="filter0_d_167_185" x="-1" y="0" width="36" height="36" filterUnits="userSpaceOnUse" color-interpolation-filters="sRGB">
<feFlood flood-opacity="0" result="BackgroundImageFix"/>
<feColorMatrix in="SourceAlpha" type="matrix" values="0 0 0 0 0 0 0 0 0 0 0 0 0 0 0 0 0 0 127 0" result="hardAlpha"/>
<feOffset dy="2"/>
<feGaussianBlur stdDeviation="3"/>
<feComposite in2="hardAlpha" operator="out"/>
<feColorMatrix type="matrix" values="0 0 0 0 0.05 0 0 0 0 0.05 0 0 0 0 0.05 0 0 0 0.2 0"/>
<feBlend mode="normal" in2="BackgroundImageFix" result="effect1_dropShadow_167_185"/>
<feBlend mode="normal" in="SourceGraphic" in2="effect1_dropShadow_167_185" result="shape"/>
</filter>
</defs>
</svg>
