<svg width="64" height="64" viewBox="0 0 64 64" fill="none" xmlns="http://www.w3.org/2000/svg">
<path d="M29.3332 7.99992C29.3332 8.70716 29.6142 9.38544 30.1143 9.88554C30.6144 10.3856 31.2927 10.6666 31.9999 10.6666H38.9066L22.1066 27.4399C21.8566 27.6878 21.6582 27.9828 21.5229 28.3077C21.3875 28.6327 21.3178 28.9812 21.3178 29.3332C21.3178 29.6853 21.3875 30.0338 21.5229 30.3588C21.6582 30.6837 21.8566 30.9787 22.1066 31.2266L30.9066 39.9999L16.7732 54.1066C16.2711 54.6087 15.989 55.2898 15.989 55.9999C15.989 56.7101 16.2711 57.3911 16.7732 57.8932C17.2754 58.3954 17.9564 58.6775 18.6666 58.6775C19.3767 58.6775 20.0578 58.3954 20.5599 57.8932L36.5599 41.8932C36.8098 41.6453 37.0082 41.3504 37.1436 41.0255C37.279 40.7005 37.3487 40.3519 37.3487 39.9999C37.3487 39.6479 37.279 39.2993 37.1436 38.9744C37.0082 38.6494 36.8098 38.3545 36.5599 38.1066L27.7599 29.3332L42.6666 14.4266V21.3332C42.6666 22.0405 42.9475 22.7188 43.4476 23.2189C43.9477 23.719 44.626 23.9999 45.3332 23.9999C46.0405 23.9999 46.7188 23.719 47.2188 23.2189C47.7189 22.7188 47.9999 22.0405 47.9999 21.3332V7.99992C47.9957 7.65144 47.9232 7.30718 47.7866 6.98658C47.516 6.33499 46.9982 5.81718 46.3466 5.54658C46.026 5.40994 45.6817 5.33746 45.3332 5.33325H31.9999C31.2927 5.33325 30.6144 5.6142 30.1143 6.1143C29.6142 6.6144 29.3332 7.29267 29.3332 7.99992Z" fill="black"/>
</svg>
