<svg width="64" height="64" viewBox="0 0 64 64" fill="none" xmlns="http://www.w3.org/2000/svg">
<path d="M22.5807 22.3852L22.5747 22.3901L22.569 22.3956L22.5807 22.3852ZM49.125 21.8878C48.9395 21.709 48.7337 21.5525 48.5117 21.4216C48.1975 21.2367 47.8488 21.1182 47.487 21.0735C47.1252 21.0287 46.7581 21.0586 46.4083 21.1614C46.0586 21.2642 45.7336 21.4376 45.4535 21.6709C45.1734 21.9042 44.9442 22.1926 44.7799 22.518C43.8614 24.3278 42.5945 25.9385 41.0519 27.2576C41.2878 25.9285 41.4068 24.5813 41.4074 23.2315C41.4124 19.1251 40.3291 15.0908 38.2678 11.5392C36.2066 7.98757 33.241 5.04563 29.673 3.01286C29.28 2.79005 28.8368 2.67075 28.385 2.66615C27.9332 2.66156 27.4877 2.77181 27.0902 2.98657C26.6927 3.20133 26.3562 3.51356 26.1125 3.89395C25.8687 4.27435 25.7255 4.71044 25.6965 5.16131C25.5472 7.68978 24.8862 10.1616 23.7535 12.4271C22.6208 14.6926 21.0399 16.7045 19.1067 18.3409L18.4921 18.8409C16.4705 20.2012 14.6812 21.878 13.1926 23.8071C10.8788 26.722 9.27596 30.136 8.51119 33.7782C7.74642 37.4204 7.84077 41.1908 8.78676 44.7902C9.73274 48.3896 11.5043 51.7191 13.9611 54.5147C16.4178 57.3103 19.4921 59.495 22.9401 60.8956C23.345 61.0611 23.7843 61.1243 24.2194 61.0798C24.6545 61.0353 25.0719 60.8844 25.4349 60.6405C25.7979 60.3965 26.0952 60.067 26.3007 59.681C26.5063 59.2949 26.6136 58.8642 26.6134 58.4269C26.6114 58.144 26.5667 57.863 26.4806 57.5935C25.8839 55.3509 25.7121 53.0165 25.974 50.7107C28.4973 55.47 32.5477 59.2424 37.474 61.4217C38.0753 61.6907 38.7551 61.7269 39.3816 61.5232C43.2738 60.267 46.7801 58.0364 49.5673 55.0434C52.3546 52.0503 54.3303 48.3943 55.3066 44.4227C56.2829 40.4511 56.2275 36.2958 55.1456 32.3516C54.0636 28.4074 51.9912 24.8054 49.125 21.8878ZM38.7123 56.104C36.3878 54.9259 34.3372 53.2718 32.694 51.2492C31.0508 49.2266 29.8516 46.8808 29.1745 44.3644C28.9677 43.5171 28.8077 42.659 28.6953 41.7941C28.6192 41.2433 28.3728 40.73 27.9906 40.3261C27.6084 39.9223 27.1096 39.6479 26.5638 39.5414C26.3957 39.5083 26.2247 39.4917 26.0534 39.492C25.5847 39.4918 25.1242 39.6152 24.7185 39.8498C24.3127 40.0843 23.9759 40.4217 23.7422 40.828C21.5295 44.6443 20.4168 48.9987 20.5273 53.4087C18.5813 51.8957 16.9549 50.0114 15.7424 47.8652C14.53 45.719 13.7555 43.3535 13.464 40.9057C13.1725 38.458 13.3697 35.9768 14.0442 33.6058C14.7186 31.2349 15.857 29.0214 17.3932 27.0936C18.5596 25.5785 19.9668 24.265 21.5585 23.2056C21.6275 23.1611 21.6936 23.1124 21.7564 23.0598C21.7564 23.0598 22.5476 22.4052 22.5747 22.3902C26.3739 19.1767 29.076 14.8582 30.3046 10.0363C33.2102 12.7223 35.1475 16.2924 35.816 20.1923C36.4844 24.0923 35.8465 28.1038 34.0012 31.604C33.7575 32.0711 33.6575 32.5999 33.7138 33.1237C33.7702 33.6476 33.9805 34.143 34.3181 34.5475C34.6557 34.9519 35.1056 35.2474 35.6109 35.3965C36.1162 35.5456 36.6544 35.5417 37.1575 35.3854C41.2423 34.1049 44.8367 31.6038 47.457 28.2187C49.0318 30.5448 50.0614 33.1963 50.469 35.9757C50.8766 38.755 50.6518 41.5905 49.8112 44.2708C48.9706 46.9512 47.5361 49.4073 45.6143 51.4561C43.6926 53.505 41.3333 55.0937 38.7122 56.104L38.7123 56.104Z" fill="black"/>
</svg>
