<svg width="64" height="64" viewBox="0 0 64 64" fill="none" xmlns="http://www.w3.org/2000/svg">
<path d="M53.6267 46.6399L40.0001 23.2799V10.6666H42.6667C43.374 10.6666 44.0523 10.3856 44.5523 9.88554C45.0524 9.38544 45.3334 8.70716 45.3334 7.99992C45.3334 7.29267 45.0524 6.6144 44.5523 6.1143C44.0523 5.6142 43.374 5.33325 42.6667 5.33325H21.3334C20.6262 5.33325 19.9479 5.6142 19.4478 6.1143C18.9477 6.6144 18.6667 7.29267 18.6667 7.99992C18.6667 8.70716 18.9477 9.38544 19.4478 9.88554C19.9479 10.3856 20.6262 10.6666 21.3334 10.6666H24.0001V23.2799L10.3734 46.6399C9.66551 47.8552 9.2905 49.2356 9.28617 50.6419C9.28184 52.0483 9.64834 53.431 10.3487 54.6506C11.0491 55.8702 12.0586 56.8836 13.2755 57.5887C14.4924 58.2937 15.8737 58.6655 17.2801 58.6666H46.6134C48.0198 58.6655 49.401 58.2937 50.6179 57.5887C51.8348 56.8836 52.8443 55.8702 53.5447 54.6506C54.2451 53.431 54.6116 52.0483 54.6073 50.6419C54.603 49.2356 54.2279 47.8552 53.5201 46.6399H53.6267ZM28.9601 25.3066C29.1953 24.9106 29.3239 24.4604 29.3334 23.9999V10.6666H34.6667V23.9999C34.6716 24.4695 34.8004 24.9294 35.0401 25.3333L37.3334 29.3333H26.6667L28.9601 25.3066ZM49.0134 51.9733C48.7807 52.3763 48.4466 52.7114 48.0443 52.9453C47.642 53.1792 47.1854 53.3038 46.7201 53.3066H17.3867C16.9214 53.3038 16.4648 53.1792 16.0625 52.9453C15.6602 52.7114 15.3261 52.3763 15.0934 51.9733C14.8593 51.5679 14.7361 51.108 14.7361 50.6399C14.7361 50.1718 14.8593 49.712 15.0934 49.3066L23.5467 34.6666H40.4801L49.0134 49.3333C49.2474 49.7386 49.3707 50.1985 49.3707 50.6666C49.3707 51.1347 49.2474 51.5945 49.0134 51.9999V51.9733ZM26.6667 39.9999C26.1393 39.9999 25.6237 40.1563 25.1852 40.4493C24.7467 40.7424 24.4049 41.1588 24.2031 41.6461C24.0012 42.1334 23.9484 42.6695 24.0513 43.1868C24.1542 43.7041 24.4082 44.1793 24.7811 44.5522C25.1541 44.9251 25.6292 45.1791 26.1465 45.282C26.6638 45.3849 27.1999 45.3321 27.6872 45.1303C28.1745 44.9284 28.591 44.5866 28.884 44.1481C29.177 43.7096 29.3334 43.194 29.3334 42.6666C29.3334 41.9593 29.0524 41.2811 28.5523 40.781C28.0522 40.2809 27.374 39.9999 26.6667 39.9999ZM37.3334 42.6666C36.806 42.6666 36.2904 42.823 35.8519 43.116C35.4133 43.409 35.0716 43.8255 34.8697 44.3128C34.6679 44.8 34.6151 45.3362 34.718 45.8535C34.8209 46.3708 35.0748 46.8459 35.4478 47.2189C35.8207 47.5918 36.2959 47.8458 36.8132 47.9487C37.3304 48.0516 37.8666 47.9988 38.3539 47.7969C38.8412 47.5951 39.2576 47.2533 39.5506 46.8148C39.8437 46.3762 40.0001 45.8607 40.0001 45.3333C40.0001 44.626 39.7191 43.9477 39.219 43.4476C38.7189 42.9475 38.0406 42.6666 37.3334 42.6666Z" fill="black"/>
</svg>
