<svg width="64" height="64" viewBox="0 0 64 64" fill="none" xmlns="http://www.w3.org/2000/svg">
<path d="M56 47.9999H50.6666V39.9999C50.6666 39.2927 50.3857 38.6144 49.8856 38.1143C49.3855 37.6142 48.7072 37.3332 48 37.3332H34.6666V30.1066L37.68 31.6799C38.1194 31.9098 38.6143 32.0126 39.1089 31.9767C39.6036 31.9408 40.0784 31.7677 40.4801 31.4769C40.8818 31.186 41.1944 30.7889 41.3828 30.3301C41.5712 29.8713 41.6279 29.3691 41.5466 28.8799L40.48 22.5599L45.0666 18.0532C45.414 17.714 45.6622 17.2863 45.7844 16.8164C45.9066 16.3464 45.8981 15.8521 45.76 15.3866C45.6054 14.9126 45.3211 14.4915 44.9393 14.171C44.5575 13.8505 44.0935 13.6434 43.6 13.5732L37.3333 12.5866L34.4 6.82656C34.1816 6.3757 33.8407 5.99547 33.4162 5.72942C32.9918 5.46337 32.5009 5.32227 32 5.32227C31.499 5.32227 31.0082 5.46337 30.5837 5.72942C30.1593 5.99547 29.8183 6.3757 29.6 6.82656L26.6666 12.5866L20.2933 13.5199C19.7998 13.59 19.3358 13.7971 18.954 14.1176C18.5722 14.4382 18.2879 14.8593 18.1333 15.3332C17.9951 15.7987 17.9867 16.2931 18.1089 16.763C18.2311 17.233 18.4792 17.6606 18.8266 17.9999L23.52 22.5599L22.4533 28.8799C22.372 29.3691 22.4288 29.8713 22.6172 30.3301C22.8056 30.7889 23.1182 31.186 23.5199 31.4769C23.9216 31.7677 24.3964 31.9408 24.8911 31.9767C25.3857 32.0126 25.8805 31.9098 26.32 31.6799L29.3333 30.1066V37.3332H16C15.2927 37.3332 14.6145 37.6142 14.1144 38.1143C13.6143 38.6144 13.3333 39.2927 13.3333 39.9999V47.9999H7.99998C7.29274 47.9999 6.61446 48.2808 6.11436 48.7809C5.61426 49.281 5.33331 49.9593 5.33331 50.6666V55.9999C5.33331 56.7071 5.61426 57.3854 6.11436 57.8855C6.61446 58.3856 7.29274 58.6666 7.99998 58.6666C8.70722 58.6666 9.3855 58.3856 9.8856 57.8855C10.3857 57.3854 10.6666 56.7071 10.6666 55.9999V53.3332H21.3333V55.9999C21.3333 56.7071 21.6143 57.3854 22.1144 57.8855C22.6145 58.3856 23.2927 58.6666 24 58.6666C24.7072 58.6666 25.3855 58.3856 25.8856 57.8855C26.3857 57.3854 26.6666 56.7071 26.6666 55.9999V50.6666C26.6666 49.9593 26.3857 49.281 25.8856 48.7809C25.3855 48.2808 24.7072 47.9999 24 47.9999H18.6666V42.6666H45.3333V47.9999H40C39.2927 47.9999 38.6145 48.2808 38.1144 48.7809C37.6143 49.281 37.3333 49.9593 37.3333 50.6666V55.9999C37.3333 56.7071 37.6143 57.3854 38.1144 57.8855C38.6145 58.3856 39.2927 58.6666 40 58.6666C40.7072 58.6666 41.3855 58.3856 41.8856 57.8855C42.3857 57.3854 42.6666 56.7071 42.6666 55.9999V53.3332H53.3333V55.9999C53.3333 56.7071 53.6143 57.3854 54.1144 57.8855C54.6145 58.3856 55.2927 58.6666 56 58.6666C56.7072 58.6666 57.3855 58.3856 57.8856 57.8855C58.3857 57.3854 58.6666 56.7071 58.6666 55.9999V50.6666C58.6666 49.9593 58.3857 49.281 57.8856 48.7809C57.3855 48.2808 56.7072 47.9999 56 47.9999ZM32 23.0132C31.5623 23.0154 31.1318 23.1253 30.7466 23.3332L28.6133 24.4532L29.0133 22.0532C29.0833 21.6287 29.0495 21.1936 28.9148 20.7849C28.7802 20.3763 28.5486 20.0063 28.24 19.7066L26.5066 17.9999L28.9066 17.6532C29.336 17.5959 29.7449 17.4348 30.0981 17.1839C30.4512 16.933 30.7379 16.5998 30.9333 16.2132L32 14.0266L33.0666 16.2132C33.2621 16.5998 33.5488 16.933 33.9019 17.1839C34.255 17.4348 34.6639 17.5959 35.0933 17.6532L37.4933 17.9999L35.76 19.7066C35.4513 20.0063 35.2198 20.3763 35.0851 20.7849C34.9505 21.1936 34.9167 21.6287 34.9866 22.0532L35.3866 24.4532L33.2533 23.3332C32.8681 23.1253 32.4377 23.0154 32 23.0132Z" fill="black"/>
</svg>
