<svg width="64" height="64" viewBox="0 0 64 64" fill="none" xmlns="http://www.w3.org/2000/svg">
<path d="M52.3467 9.7335C52.0369 9.4829 51.6749 9.3049 51.2872 9.21261C50.8996 9.12031 50.4962 9.11606 50.1067 9.20017C47.2572 9.79735 44.3156 9.80496 41.4631 9.22253C38.6105 8.64009 35.9074 7.47994 33.52 5.81351C33.0736 5.50383 32.5433 5.33789 32 5.33789C31.4568 5.33789 30.9264 5.50383 30.48 5.81351C28.0927 7.47994 25.3896 8.64009 22.537 9.22253C19.6845 9.80496 16.7429 9.79735 13.8934 9.20017C13.5039 9.11606 13.1005 9.12031 12.7128 9.21261C12.3252 9.3049 11.9632 9.4829 11.6534 9.7335C11.344 9.98449 11.0948 10.3016 10.924 10.6615C10.7533 11.0215 10.6653 11.4151 10.6667 11.8135V31.6802C10.6643 35.5035 11.5754 39.2721 13.3241 42.6721C15.0728 46.072 17.6085 49.0051 20.72 51.2268L30.4534 58.1602C30.905 58.4817 31.4456 58.6545 32 58.6545C32.5544 58.6545 33.0951 58.4817 33.5467 58.1602L43.28 51.2268C46.3916 49.0051 48.9272 46.072 50.6759 42.6721C52.4246 39.2721 53.3357 35.5035 53.3334 31.6802V11.8135C53.3347 11.4151 53.2468 11.0215 53.0761 10.6615C52.9053 10.3016 52.6561 9.98449 52.3467 9.7335ZM48 31.6802C48.0021 34.6529 47.2941 37.583 45.9351 40.2269C44.5761 42.8707 42.6053 45.1518 40.1867 46.8802L32 52.7202L23.8134 46.8802C21.3948 45.1518 19.424 42.8707 18.065 40.2269C16.7059 37.583 15.998 34.6529 16 31.6802V14.8802C21.5905 15.3587 27.1895 14.0616 32 11.1735C36.8106 14.0616 42.4096 15.3587 48 14.8802V31.6802ZM36.1067 25.5735L28.9334 32.7735L26.56 30.3735C26.0579 29.8714 25.3768 29.5893 24.6667 29.5893C23.9566 29.5893 23.2755 29.8714 22.7734 30.3735C22.2712 30.8756 21.9891 31.5567 21.9891 32.2668C21.9891 32.977 22.2712 33.658 22.7734 34.1602L27.04 38.4268C27.2879 38.6768 27.5829 38.8752 27.9078 39.0105C28.2328 39.1459 28.5813 39.2156 28.9334 39.2156C29.2854 39.2156 29.6339 39.1459 29.9589 39.0105C30.2839 38.8752 30.5788 38.6768 30.8267 38.4268L40 29.3335C40.5022 28.8314 40.7843 28.1503 40.7843 27.4402C40.7843 26.73 40.5022 26.049 40 25.5468C39.4979 25.0447 38.8168 24.7626 38.1067 24.7626C37.3966 24.7626 36.7155 25.0447 36.2134 25.5468L36.1067 25.5735Z" fill="black"/>
</svg>
