<svg width="64" height="64" viewBox="0 0 64 64" fill="none" xmlns="http://www.w3.org/2000/svg">
<path d="M56.8 26.88C56.0507 25.9804 55.1131 25.2563 54.0533 24.7586C52.9935 24.261 51.8374 24.002 50.6667 24H38.5067L40 20.1867C40.6211 18.5171 40.828 16.7217 40.6028 14.9545C40.3777 13.1873 39.7272 11.5012 38.7072 10.0406C37.6872 8.58012 36.3281 7.38883 34.7465 6.56895C33.1649 5.74908 31.4081 5.32509 29.6267 5.33337C29.1137 5.33444 28.6119 5.48344 28.1815 5.7625C27.7511 6.04156 27.4103 6.43884 27.2 6.9067L19.6 24H13.3333C11.2116 24 9.17677 24.8429 7.67647 26.3432C6.17618 27.8435 5.33333 29.8783 5.33333 32V50.6667C5.33333 52.7884 6.17618 54.8233 7.67647 56.3236C9.17677 57.8238 11.2116 58.6667 13.3333 58.6667H47.28C49.1515 58.6661 50.9635 58.0093 52.4009 56.8108C53.8382 55.6122 54.8098 53.9476 55.1467 52.1067L58.5333 33.44C58.7428 32.2864 58.6961 31.1008 58.3966 29.9672C58.097 28.8336 57.552 27.7796 56.8 26.88ZM18.6667 53.3334H13.3333C12.6261 53.3334 11.9478 53.0524 11.4477 52.5523C10.9476 52.0522 10.6667 51.3739 10.6667 50.6667V32C10.6667 31.2928 10.9476 30.6145 11.4477 30.1144C11.9478 29.6143 12.6261 29.3334 13.3333 29.3334H18.6667V53.3334ZM53.3333 32.48L49.9467 51.1467C49.8331 51.7679 49.5027 52.3287 49.0144 52.7291C48.526 53.1295 47.9114 53.3437 47.28 53.3334H24V27.2267L31.2533 10.9067C32 11.1244 32.6933 11.4945 33.2897 11.9936C33.8861 12.4927 34.3726 13.1101 34.7184 13.8067C35.0642 14.5033 35.2618 15.264 35.2988 16.0408C35.3358 16.8177 35.2114 17.5937 34.9333 18.32L33.52 22.1334C33.2188 22.9394 33.1172 23.8063 33.2237 24.6601C33.3302 25.5139 33.6416 26.3293 34.1316 27.0367C34.6215 27.744 35.2752 28.3223 36.0371 28.7223C36.7989 29.1222 37.6462 29.3319 38.5067 29.3334H50.6667C51.0584 29.3327 51.4455 29.4184 51.8004 29.5843C52.1553 29.7503 52.4693 29.9923 52.72 30.2934C52.9769 30.5902 53.1651 30.9402 53.2711 31.3181C53.3771 31.6961 53.3984 32.0929 53.3333 32.48Z" fill="black"/>
</svg>
